<svg width="720" height="520" viewBox="0 0 720 520" fill="none" xmlns="http://www.w3.org/2000/svg">
  <rect width="720" height="520" rx="36" fill="#120B10"/>
  <circle cx="622" cy="102" r="96" fill="url(#paint0_radial_156_2)" fill-opacity="0.45"/>
  <circle cx="108" cy="384" r="132" fill="url(#paint1_radial_156_2)" fill-opacity="0.36"/>
  <rect x="224" y="70" width="274" height="382" rx="30" fill="#A92233"/>
  <rect x="248" y="104" width="224" height="314" rx="18" fill="#160C12" stroke="#F6B8BA" stroke-width="2"/>
  <circle cx="304" cy="182" r="42" fill="url(#paint2_radial_156_2)"/>
  <circle cx="304" cy="270" r="42" fill="url(#paint3_radial_156_2)"/>
  <circle cx="304" cy="358" r="42" fill="url(#paint4_radial_156_2)"/>
  <rect x="364" y="156" width="76" height="24" rx="12" fill="#FFE2B8"/>
  <rect x="364" y="208" width="58" height="16" rx="8" fill="#A78A5F"/>
  <rect x="364" y="254" width="84" height="56" rx="16" fill="#211319"/>
  <rect x="364" y="324" width="66" height="16" rx="8" fill="#A78A5F"/>
  <rect x="364" y="352" width="58" height="16" rx="8" fill="#A78A5F"/>
  <rect x="520" y="128" width="16" height="270" rx="8" fill="#522330"/>
  <defs>
    <radialGradient id="paint0_radial_156_2" cx="0" cy="0" r="1" gradientUnits="userSpaceOnUse" gradientTransform="translate(622 102) rotate(90) scale(96)">
      <stop stop-color="#FF8B7B"/>
      <stop offset="1" stop-color="#FF8B7B" stop-opacity="0"/>
    </radialGradient>
    <radialGradient id="paint1_radial_156_2" cx="0" cy="0" r="1" gradientUnits="userSpaceOnUse" gradientTransform="translate(108 384) rotate(90) scale(132)">
      <stop stop-color="#FFB657"/>
      <stop offset="1" stop-color="#FFB657" stop-opacity="0"/>
    </radialGradient>
    <radialGradient id="paint2_radial_156_2" cx="0" cy="0" r="1" gradientUnits="userSpaceOnUse" gradientTransform="translate(304 182) rotate(90) scale(42)">
      <stop stop-color="#FF9D57"/>
      <stop offset="1" stop-color="#FF9D57" stop-opacity="0.1"/>
    </radialGradient>
    <radialGradient id="paint3_radial_156_2" cx="0" cy="0" r="1" gradientUnits="userSpaceOnUse" gradientTransform="translate(304 270) rotate(90) scale(42)">
      <stop stop-color="#FF6786"/>
      <stop offset="1" stop-color="#FF6786" stop-opacity="0.1"/>
    </radialGradient>
    <radialGradient id="paint4_radial_156_2" cx="0" cy="0" r="1" gradientUnits="userSpaceOnUse" gradientTransform="translate(304 358) rotate(90) scale(42)">
      <stop stop-color="#FFD36A"/>
      <stop offset="1" stop-color="#FFD36A" stop-opacity="0.1"/>
    </radialGradient>
  </defs>
</svg>
