<svg width="720" height="520" viewBox="0 0 720 520" fill="none" xmlns="http://www.w3.org/2000/svg">
  <rect width="720" height="520" rx="36" fill="#091120"/>
  <circle cx="565" cy="86" r="92" fill="url(#paint0_radial_162_2)" fill-opacity="0.48"/>
  <circle cx="129" cy="424" r="126" fill="url(#paint1_radial_162_2)" fill-opacity="0.35"/>
  <rect x="220" y="68" width="280" height="384" rx="30" fill="#2D69D8"/>
  <rect x="246" y="98" width="228" height="320" rx="18" fill="#D7E5FF" fill-opacity="0.12" stroke="#9BC1FF" stroke-width="2"/>
  <circle cx="302" cy="182" r="42" fill="url(#paint2_radial_162_2)"/>
  <circle cx="302" cy="270" r="42" fill="url(#paint3_radial_162_2)"/>
  <circle cx="302" cy="358" r="42" fill="url(#paint4_radial_162_2)"/>
  <rect x="362" y="152" width="86" height="26" rx="13" fill="#E7F0FF"/>
  <rect x="362" y="198" width="62" height="16" rx="8" fill="#7AA3F8"/>
  <rect x="362" y="252" width="90" height="56" rx="16" fill="#152845"/>
  <rect x="362" y="322" width="70" height="16" rx="8" fill="#7AA3F8"/>
  <rect x="362" y="350" width="58" height="16" rx="8" fill="#7AA3F8"/>
  <rect x="520" y="128" width="18" height="270" rx="9" fill="#153266"/>
  <defs>
    <radialGradient id="paint0_radial_162_2" cx="0" cy="0" r="1" gradientUnits="userSpaceOnUse" gradientTransform="translate(565 86) rotate(90) scale(92)">
      <stop stop-color="#B27BFF"/>
      <stop offset="1" stop-color="#B27BFF" stop-opacity="0"/>
    </radialGradient>
    <radialGradient id="paint1_radial_162_2" cx="0" cy="0" r="1" gradientUnits="userSpaceOnUse" gradientTransform="translate(129 424) rotate(90) scale(126)">
      <stop stop-color="#5AE2FF"/>
      <stop offset="1" stop-color="#5AE2FF" stop-opacity="0"/>
    </radialGradient>
    <radialGradient id="paint2_radial_162_2" cx="0" cy="0" r="1" gradientUnits="userSpaceOnUse" gradientTransform="translate(302 182) rotate(90) scale(42)">
      <stop stop-color="#68F6FF"/>
      <stop offset="1" stop-color="#68F6FF" stop-opacity="0.12"/>
    </radialGradient>
    <radialGradient id="paint3_radial_162_2" cx="0" cy="0" r="1" gradientUnits="userSpaceOnUse" gradientTransform="translate(302 270) rotate(90) scale(42)">
      <stop stop-color="#F67CFF"/>
      <stop offset="1" stop-color="#F67CFF" stop-opacity="0.12"/>
    </radialGradient>
    <radialGradient id="paint4_radial_162_2" cx="0" cy="0" r="1" gradientUnits="userSpaceOnUse" gradientTransform="translate(302 358) rotate(90) scale(42)">
      <stop stop-color="#7D90FF"/>
      <stop offset="1" stop-color="#7D90FF" stop-opacity="0.12"/>
    </radialGradient>
  </defs>
</svg>
