<svg width="720" height="520" viewBox="0 0 720 520" fill="none" xmlns="http://www.w3.org/2000/svg">
  <rect width="720" height="520" rx="36" fill="#0B1320"/>
  <circle cx="122" cy="92" r="92" fill="url(#paint0_radial_151_2)" fill-opacity="0.55"/>
  <circle cx="626" cy="408" r="120" fill="url(#paint1_radial_151_2)" fill-opacity="0.4"/>
  <rect x="208" y="76" width="286" height="372" rx="28" fill="#E9EEF7"/>
  <rect x="236" y="106" width="230" height="312" rx="18" fill="#BFCFE7" fill-opacity="0.24" stroke="#D9E5F6" stroke-width="2"/>
  <circle cx="291" cy="177" r="40" fill="url(#paint2_radial_151_2)"/>
  <circle cx="291" cy="262" r="40" fill="url(#paint3_radial_151_2)"/>
  <circle cx="291" cy="347" r="40" fill="url(#paint4_radial_151_2)"/>
  <rect x="349" y="146" width="84" height="26" rx="13" fill="#1B2A3E"/>
  <rect x="349" y="192" width="68" height="20" rx="10" fill="#7F95B4"/>
  <rect x="349" y="254" width="92" height="52" rx="14" fill="#18263A"/>
  <rect x="349" y="319" width="76" height="18" rx="9" fill="#7F95B4"/>
  <rect x="349" y="348" width="58" height="18" rx="9" fill="#7F95B4"/>
  <rect x="518" y="120" width="22" height="288" rx="11" fill="#25364D"/>
  <path d="M104 438C180.5 389.554 229.5 388.423 320 438H104Z" fill="#101C2B"/>
  <defs>
    <radialGradient id="paint0_radial_151_2" cx="0" cy="0" r="1" gradientUnits="userSpaceOnUse" gradientTransform="translate(122 92) rotate(90) scale(92)">
      <stop stop-color="#64E4FF"/>
      <stop offset="1" stop-color="#64E4FF" stop-opacity="0"/>
    </radialGradient>
    <radialGradient id="paint1_radial_151_2" cx="0" cy="0" r="1" gradientUnits="userSpaceOnUse" gradientTransform="translate(626 408) rotate(90) scale(120)">
      <stop stop-color="#FF5C7A"/>
      <stop offset="1" stop-color="#FF5C7A" stop-opacity="0"/>
    </radialGradient>
    <radialGradient id="paint2_radial_151_2" cx="0" cy="0" r="1" gradientUnits="userSpaceOnUse" gradientTransform="translate(291 177) rotate(90) scale(40)">
      <stop stop-color="#8CF7FF"/>
      <stop offset="1" stop-color="#8CF7FF" stop-opacity="0.12"/>
    </radialGradient>
    <radialGradient id="paint3_radial_151_2" cx="0" cy="0" r="1" gradientUnits="userSpaceOnUse" gradientTransform="translate(291 262) rotate(90) scale(40)">
      <stop stop-color="#FF79B0"/>
      <stop offset="1" stop-color="#FF79B0" stop-opacity="0.12"/>
    </radialGradient>
    <radialGradient id="paint4_radial_151_2" cx="0" cy="0" r="1" gradientUnits="userSpaceOnUse" gradientTransform="translate(291 347) rotate(90) scale(40)">
      <stop stop-color="#B59CFF"/>
      <stop offset="1" stop-color="#B59CFF" stop-opacity="0.12"/>
    </radialGradient>
  </defs>
</svg>
